<mxfile host="Electron" agent="Mozilla/5.0 (Windows NT 10.0; Win64; x64) AppleWebKit/537.36 (KHTML, like Gecko) draw.io/26.0.4 Chrome/128.0.6613.186 Electron/32.2.5 Safari/537.36" version="26.0.4">
  <diagram id="6a731a19-8d31-9384-78a2-239565b7b9f0" name="Page-1">
    <mxGraphModel dx="3762" dy="2332" grid="1" gridSize="10" guides="1" tooltips="1" connect="1" arrows="1" fold="1" page="1" pageScale="1" pageWidth="1169" pageHeight="827" background="none" math="0" shadow="0">
      <root>
        <mxCell id="0" />
        <mxCell id="1" parent="0" />
        <mxCell id="1745" value="" style="edgeStyle=none;rounded=0;jumpStyle=none;html=1;shadow=0;labelBackgroundColor=none;startArrow=none;startFill=0;endArrow=classic;endFill=1;jettySize=auto;orthogonalLoop=1;strokeColor=#006EAF;strokeWidth=3;fontFamily=Helvetica;fontSize=16;fontColor=#23445D;spacing=5;fillColor=#1ba1e2;" parent="1" source="1749" target="1764" edge="1">
          <mxGeometry relative="1" as="geometry" />
        </mxCell>
        <mxCell id="1746" value="" style="edgeStyle=none;rounded=0;jumpStyle=none;html=1;shadow=0;labelBackgroundColor=none;startArrow=none;startFill=0;endArrow=classic;endFill=1;jettySize=auto;orthogonalLoop=1;strokeColor=#006EAF;strokeWidth=3;fontFamily=Helvetica;fontSize=16;fontColor=#23445D;spacing=5;fillColor=#1ba1e2;" parent="1" source="1749" target="1771" edge="1">
          <mxGeometry relative="1" as="geometry" />
        </mxCell>
        <mxCell id="1747" value="" style="edgeStyle=none;rounded=0;jumpStyle=none;html=1;shadow=0;labelBackgroundColor=none;startArrow=none;startFill=0;endArrow=classic;endFill=1;jettySize=auto;orthogonalLoop=1;strokeColor=#006EAF;strokeWidth=3;fontFamily=Helvetica;fontSize=16;fontColor=#23445D;spacing=5;fillColor=#1ba1e2;" parent="1" source="1749" target="1760" edge="1">
          <mxGeometry relative="1" as="geometry" />
        </mxCell>
        <mxCell id="1748" value="" style="edgeStyle=none;rounded=0;jumpStyle=none;html=1;shadow=0;labelBackgroundColor=none;startArrow=none;startFill=0;endArrow=classic;endFill=1;jettySize=auto;orthogonalLoop=1;strokeColor=#006EAF;strokeWidth=3;fontFamily=Helvetica;fontSize=16;fontColor=#23445D;spacing=5;fillColor=#1ba1e2;" parent="1" source="1749" target="1753" edge="1">
          <mxGeometry relative="1" as="geometry" />
        </mxCell>
        <mxCell id="1749" value="Безопасность данных" style="rounded=1;whiteSpace=wrap;html=1;shadow=0;labelBackgroundColor=none;strokeColor=#006EAF;strokeWidth=3;fillColor=#1ba1e2;fontFamily=Helvetica;fontSize=16;fontColor=#ffffff;align=center;fontStyle=1;spacing=5;arcSize=7;perimeterSpacing=2;" parent="1" vertex="1">
          <mxGeometry x="495" y="380.5" width="150" height="70" as="geometry" />
        </mxCell>
        <mxCell id="1751" value="" style="edgeStyle=none;rounded=1;jumpStyle=none;html=1;shadow=0;labelBackgroundColor=none;startArrow=none;startFill=0;jettySize=auto;orthogonalLoop=1;strokeColor=#006EAF;strokeWidth=3;fontFamily=Helvetica;fontSize=14;fontColor=#FFFFFF;spacing=5;fontStyle=1;fillColor=#1ba1e2;" parent="1" source="1753" target="1755" edge="1">
          <mxGeometry relative="1" as="geometry" />
        </mxCell>
        <mxCell id="1753" value="секретные данные" style="rounded=1;whiteSpace=wrap;html=1;shadow=0;labelBackgroundColor=none;strokeColor=#006EAF;strokeWidth=3;fillColor=#1ba1e2;fontFamily=Helvetica;fontSize=14;fontColor=#ffffff;align=center;spacing=5;fontStyle=1;arcSize=7;perimeterSpacing=2;" parent="1" vertex="1">
          <mxGeometry x="215" y="385.5" width="150" height="60" as="geometry" />
        </mxCell>
        <mxCell id="1755" value="сделки с объектами недвижимости" style="rounded=1;whiteSpace=wrap;html=1;shadow=0;labelBackgroundColor=none;strokeColor=#006EAF;strokeWidth=3;fillColor=#1ba1e2;fontFamily=Helvetica;fontSize=14;fontColor=#ffffff;align=center;spacing=5;fontStyle=0;arcSize=7;perimeterSpacing=2;" parent="1" vertex="1">
          <mxGeometry x="-16" y="553" width="150" height="60" as="geometry" />
        </mxCell>
        <mxCell id="1760" value="конфиденциальные данные" style="rounded=1;whiteSpace=wrap;html=1;shadow=0;labelBackgroundColor=none;strokeColor=#006EAF;strokeWidth=3;fillColor=#1ba1e2;fontFamily=Helvetica;fontSize=14;fontColor=#ffffff;align=center;spacing=5;fontStyle=1;arcSize=7;perimeterSpacing=2;" parent="1" vertex="1">
          <mxGeometry x="495" y="570.5" width="150" height="60" as="geometry" />
        </mxCell>
        <mxCell id="1764" value="публичные данные" style="rounded=1;whiteSpace=wrap;html=1;shadow=0;labelBackgroundColor=none;strokeColor=#006EAF;strokeWidth=3;fillColor=#1ba1e2;fontFamily=Helvetica;fontSize=14;fontColor=#ffffff;align=center;spacing=5;fontStyle=1;arcSize=7;perimeterSpacing=2;" parent="1" vertex="1">
          <mxGeometry x="495" y="200.5" width="150" height="60" as="geometry" />
        </mxCell>
        <mxCell id="1771" value="внутренние данные" style="rounded=1;whiteSpace=wrap;html=1;shadow=0;labelBackgroundColor=none;strokeColor=#006EAF;strokeWidth=3;fillColor=#1ba1e2;fontFamily=Helvetica;fontSize=14;fontColor=#ffffff;align=center;spacing=5;fontStyle=1;arcSize=7;perimeterSpacing=2;" parent="1" vertex="1">
          <mxGeometry x="795" y="385.4999999999999" width="150" height="60" as="geometry" />
        </mxCell>
        <mxCell id="1774" value="данные купленных объектов недвижимости" style="rounded=1;whiteSpace=wrap;html=1;shadow=0;labelBackgroundColor=none;strokeColor=#006EAF;strokeWidth=3;fillColor=#1ba1e2;fontFamily=Helvetica;fontSize=14;fontColor=#ffffff;align=center;spacing=5;fontStyle=0;arcSize=7;perimeterSpacing=2;" parent="1" vertex="1">
          <mxGeometry x="607.53" y="870.5" width="150" height="60" as="geometry" />
        </mxCell>
        <mxCell id="1775" value="" style="edgeStyle=none;rounded=1;jumpStyle=none;html=1;shadow=0;labelBackgroundColor=none;startArrow=none;startFill=0;jettySize=auto;orthogonalLoop=1;strokeColor=#006EAF;strokeWidth=3;fontFamily=Helvetica;fontSize=14;fontColor=#FFFFFF;spacing=5;fontStyle=1;fillColor=#1ba1e2;" parent="1" source="1760" target="1774" edge="1">
          <mxGeometry relative="1" as="geometry">
            <mxPoint x="603.3761538461542" y="802.5000000000005" as="sourcePoint" />
          </mxGeometry>
        </mxCell>
        <mxCell id="1776" value="данные продаваемых объектов недвижимости" style="rounded=1;whiteSpace=wrap;html=1;shadow=0;labelBackgroundColor=none;strokeColor=#006EAF;strokeWidth=3;fillColor=#1ba1e2;fontFamily=Helvetica;fontSize=14;fontColor=#ffffff;align=center;spacing=5;fontStyle=0;arcSize=7;perimeterSpacing=2;" parent="1" vertex="1">
          <mxGeometry x="607.53" y="-107.5" width="150" height="60" as="geometry" />
        </mxCell>
        <mxCell id="1777" value="" style="edgeStyle=none;rounded=1;jumpStyle=none;html=1;shadow=0;labelBackgroundColor=none;startArrow=none;startFill=0;jettySize=auto;orthogonalLoop=1;strokeColor=#006EAF;strokeWidth=3;fontFamily=Helvetica;fontSize=14;fontColor=#FFFFFF;spacing=5;fontStyle=1;fillColor=#1ba1e2;" parent="1" source="1764" target="1776" edge="1">
          <mxGeometry relative="1" as="geometry">
            <mxPoint x="600.0049163879605" y="40" as="sourcePoint" />
          </mxGeometry>
        </mxCell>
        <mxCell id="rD7ASvJOiuTUFyC9umSX-1779" value="утечка данных&lt;div&gt;риск незначительный&lt;br&gt;&lt;/div&gt;" style="rounded=1;whiteSpace=wrap;html=1;shadow=0;labelBackgroundColor=none;strokeColor=#006EAF;strokeWidth=3;fillColor=#1ba1e2;fontFamily=Helvetica;fontSize=14;fontColor=#ffffff;align=center;spacing=5;fontStyle=0;arcSize=7;perimeterSpacing=2;" parent="1" vertex="1">
          <mxGeometry x="827.53" y="-228" width="150" height="60" as="geometry" />
        </mxCell>
        <mxCell id="rD7ASvJOiuTUFyC9umSX-1782" value="" style="edgeStyle=none;rounded=1;jumpStyle=none;html=1;shadow=0;labelBackgroundColor=none;startArrow=none;startFill=0;jettySize=auto;orthogonalLoop=1;strokeColor=#006EAF;strokeWidth=3;fontFamily=Helvetica;fontSize=14;fontColor=#FFFFFF;spacing=5;fontStyle=1;fillColor=#1ba1e2;entryX=0;entryY=0.5;entryDx=0;entryDy=0;" parent="1" source="1776" target="rD7ASvJOiuTUFyC9umSX-1779" edge="1">
          <mxGeometry relative="1" as="geometry">
            <mxPoint x="757.53" y="-95.5" as="sourcePoint" />
            <mxPoint x="813.53" y="-111.5" as="targetPoint" />
          </mxGeometry>
        </mxCell>
        <mxCell id="rD7ASvJOiuTUFyC9umSX-1783" value="потеря данных&lt;div&gt;риск незначительный&lt;br&gt;&lt;/div&gt;" style="rounded=1;whiteSpace=wrap;html=1;shadow=0;labelBackgroundColor=none;strokeColor=#006EAF;strokeWidth=3;fillColor=#1ba1e2;fontFamily=Helvetica;fontSize=14;fontColor=#ffffff;align=center;spacing=5;fontStyle=0;arcSize=7;perimeterSpacing=2;" parent="1" vertex="1">
          <mxGeometry x="827.53" y="-168" width="150" height="60" as="geometry" />
        </mxCell>
        <mxCell id="rD7ASvJOiuTUFyC9umSX-1784" value="искажение данных&lt;div&gt;риск значительный&lt;br&gt;&lt;/div&gt;" style="rounded=1;whiteSpace=wrap;html=1;shadow=0;labelBackgroundColor=none;strokeColor=#006EAF;strokeWidth=3;fillColor=#1ba1e2;fontFamily=Helvetica;fontSize=14;fontColor=#ffffff;align=center;spacing=5;fontStyle=0;arcSize=7;perimeterSpacing=2;" parent="1" vertex="1">
          <mxGeometry x="827.53" y="-107" width="150" height="60" as="geometry" />
        </mxCell>
        <mxCell id="rD7ASvJOiuTUFyC9umSX-1785" value="некачественные данные&lt;div&gt;риск значительный&lt;br&gt;&lt;/div&gt;" style="rounded=1;whiteSpace=wrap;html=1;shadow=0;labelBackgroundColor=none;strokeColor=#006EAF;strokeWidth=3;fillColor=#1ba1e2;fontFamily=Helvetica;fontSize=14;fontColor=#ffffff;align=center;spacing=5;fontStyle=0;arcSize=7;perimeterSpacing=2;" parent="1" vertex="1">
          <mxGeometry x="827.53" y="-47" width="150" height="60" as="geometry" />
        </mxCell>
        <mxCell id="rD7ASvJOiuTUFyC9umSX-1786" value="обесценивание данных&lt;div&gt;риск незначительный&lt;br&gt;&lt;/div&gt;" style="rounded=1;whiteSpace=wrap;html=1;shadow=0;labelBackgroundColor=none;strokeColor=#006EAF;strokeWidth=3;fillColor=#1ba1e2;fontFamily=Helvetica;fontSize=14;fontColor=#ffffff;align=center;spacing=5;fontStyle=0;arcSize=7;perimeterSpacing=2;" parent="1" vertex="1">
          <mxGeometry x="827.53" y="13" width="150" height="60" as="geometry" />
        </mxCell>
        <mxCell id="rD7ASvJOiuTUFyC9umSX-1787" value="" style="edgeStyle=none;rounded=1;jumpStyle=none;html=1;shadow=0;labelBackgroundColor=none;startArrow=none;startFill=0;jettySize=auto;orthogonalLoop=1;strokeColor=#006EAF;strokeWidth=3;fontFamily=Helvetica;fontSize=14;fontColor=#FFFFFF;spacing=5;fontStyle=1;fillColor=#1ba1e2;entryX=0;entryY=0.5;entryDx=0;entryDy=0;" parent="1" source="1776" target="rD7ASvJOiuTUFyC9umSX-1783" edge="1">
          <mxGeometry relative="1" as="geometry">
            <mxPoint x="769.53" y="-83" as="sourcePoint" />
            <mxPoint x="830.53" y="-171" as="targetPoint" />
          </mxGeometry>
        </mxCell>
        <mxCell id="rD7ASvJOiuTUFyC9umSX-1788" value="" style="edgeStyle=none;rounded=1;jumpStyle=none;html=1;shadow=0;labelBackgroundColor=none;startArrow=none;startFill=0;jettySize=auto;orthogonalLoop=1;strokeColor=#006EAF;strokeWidth=3;fontFamily=Helvetica;fontSize=14;fontColor=#FFFFFF;spacing=5;fontStyle=1;fillColor=#1ba1e2;entryX=0;entryY=0.5;entryDx=0;entryDy=0;" parent="1" source="1776" target="rD7ASvJOiuTUFyC9umSX-1784" edge="1">
          <mxGeometry relative="1" as="geometry">
            <mxPoint x="769.53" y="-83" as="sourcePoint" />
            <mxPoint x="830.53" y="-111" as="targetPoint" />
          </mxGeometry>
        </mxCell>
        <mxCell id="rD7ASvJOiuTUFyC9umSX-1789" value="" style="edgeStyle=none;rounded=1;jumpStyle=none;html=1;shadow=0;labelBackgroundColor=none;startArrow=none;startFill=0;jettySize=auto;orthogonalLoop=1;strokeColor=#006EAF;strokeWidth=3;fontFamily=Helvetica;fontSize=14;fontColor=#FFFFFF;spacing=5;fontStyle=1;fillColor=#1ba1e2;entryX=0;entryY=0.5;entryDx=0;entryDy=0;" parent="1" source="1776" target="rD7ASvJOiuTUFyC9umSX-1785" edge="1">
          <mxGeometry relative="1" as="geometry">
            <mxPoint x="769.53" y="-67" as="sourcePoint" />
            <mxPoint x="830.53" y="-66" as="targetPoint" />
          </mxGeometry>
        </mxCell>
        <mxCell id="rD7ASvJOiuTUFyC9umSX-1790" value="" style="edgeStyle=none;rounded=1;jumpStyle=none;html=1;shadow=0;labelBackgroundColor=none;startArrow=none;startFill=0;jettySize=auto;orthogonalLoop=1;strokeColor=#006EAF;strokeWidth=3;fontFamily=Helvetica;fontSize=14;fontColor=#FFFFFF;spacing=5;fontStyle=1;fillColor=#1ba1e2;entryX=-0.002;entryY=0.536;entryDx=0;entryDy=0;entryPerimeter=0;" parent="1" source="1776" target="rD7ASvJOiuTUFyC9umSX-1786" edge="1">
          <mxGeometry relative="1" as="geometry">
            <mxPoint x="769.53" y="-51" as="sourcePoint" />
            <mxPoint x="830.53" y="-22" as="targetPoint" />
          </mxGeometry>
        </mxCell>
        <mxCell id="rD7ASvJOiuTUFyC9umSX-1791" value="утечка данных&lt;div&gt;риск значительный&lt;br&gt;&lt;/div&gt;" style="rounded=1;whiteSpace=wrap;html=1;shadow=0;labelBackgroundColor=none;strokeColor=#006EAF;strokeWidth=3;fillColor=#1ba1e2;fontFamily=Helvetica;fontSize=14;fontColor=#ffffff;align=center;spacing=5;fontStyle=0;arcSize=7;perimeterSpacing=2;" parent="1" vertex="1">
          <mxGeometry x="827.53" y="752" width="150" height="60" as="geometry" />
        </mxCell>
        <mxCell id="rD7ASvJOiuTUFyC9umSX-1792" value="потеря данных&lt;div&gt;риск незначительный&lt;br&gt;&lt;/div&gt;" style="rounded=1;whiteSpace=wrap;html=1;shadow=0;labelBackgroundColor=none;strokeColor=#006EAF;strokeWidth=3;fillColor=#1ba1e2;fontFamily=Helvetica;fontSize=14;fontColor=#ffffff;align=center;spacing=5;fontStyle=0;arcSize=7;perimeterSpacing=2;" parent="1" vertex="1">
          <mxGeometry x="827.53" y="812" width="150" height="60" as="geometry" />
        </mxCell>
        <mxCell id="rD7ASvJOiuTUFyC9umSX-1793" value="искажение данных&lt;div&gt;риск значительный&lt;br&gt;&lt;/div&gt;" style="rounded=1;whiteSpace=wrap;html=1;shadow=0;labelBackgroundColor=none;strokeColor=#006EAF;strokeWidth=3;fillColor=#1ba1e2;fontFamily=Helvetica;fontSize=14;fontColor=#ffffff;align=center;spacing=5;fontStyle=0;arcSize=7;perimeterSpacing=2;" parent="1" vertex="1">
          <mxGeometry x="827.53" y="873" width="150" height="60" as="geometry" />
        </mxCell>
        <mxCell id="rD7ASvJOiuTUFyC9umSX-1794" value="некачественные данные&lt;div&gt;риск значительный&lt;br&gt;&lt;/div&gt;" style="rounded=1;whiteSpace=wrap;html=1;shadow=0;labelBackgroundColor=none;strokeColor=#006EAF;strokeWidth=3;fillColor=#1ba1e2;fontFamily=Helvetica;fontSize=14;fontColor=#ffffff;align=center;spacing=5;fontStyle=0;arcSize=7;perimeterSpacing=2;" parent="1" vertex="1">
          <mxGeometry x="827.53" y="933" width="150" height="60" as="geometry" />
        </mxCell>
        <mxCell id="rD7ASvJOiuTUFyC9umSX-1795" value="обесценивание данных&lt;div&gt;риск незначительный&lt;br&gt;&lt;/div&gt;" style="rounded=1;whiteSpace=wrap;html=1;shadow=0;labelBackgroundColor=none;strokeColor=#006EAF;strokeWidth=3;fillColor=#1ba1e2;fontFamily=Helvetica;fontSize=14;fontColor=#ffffff;align=center;spacing=5;fontStyle=0;arcSize=7;perimeterSpacing=2;" parent="1" vertex="1">
          <mxGeometry x="827.53" y="993" width="150" height="60" as="geometry" />
        </mxCell>
        <mxCell id="rD7ASvJOiuTUFyC9umSX-1796" value="" style="edgeStyle=none;rounded=1;jumpStyle=none;html=1;shadow=0;labelBackgroundColor=none;startArrow=none;startFill=0;jettySize=auto;orthogonalLoop=1;strokeColor=#006EAF;strokeWidth=3;fontFamily=Helvetica;fontSize=14;fontColor=#FFFFFF;spacing=5;fontStyle=1;fillColor=#1ba1e2;entryX=0;entryY=0.5;entryDx=0;entryDy=0;" parent="1" source="1774" target="rD7ASvJOiuTUFyC9umSX-1791" edge="1">
          <mxGeometry relative="1" as="geometry">
            <mxPoint x="764.53" y="612.5" as="sourcePoint" />
            <mxPoint x="826.53" y="683.5" as="targetPoint" />
          </mxGeometry>
        </mxCell>
        <mxCell id="rD7ASvJOiuTUFyC9umSX-1797" value="" style="edgeStyle=none;rounded=1;jumpStyle=none;html=1;shadow=0;labelBackgroundColor=none;startArrow=none;startFill=0;jettySize=auto;orthogonalLoop=1;strokeColor=#006EAF;strokeWidth=3;fontFamily=Helvetica;fontSize=14;fontColor=#FFFFFF;spacing=5;fontStyle=1;fillColor=#1ba1e2;entryX=0;entryY=0.5;entryDx=0;entryDy=0;" parent="1" source="1774" target="rD7ASvJOiuTUFyC9umSX-1792" edge="1">
          <mxGeometry relative="1" as="geometry">
            <mxPoint x="764.53" y="893.5" as="sourcePoint" />
            <mxPoint x="825.53" y="806.5" as="targetPoint" />
          </mxGeometry>
        </mxCell>
        <mxCell id="rD7ASvJOiuTUFyC9umSX-1798" value="" style="edgeStyle=none;rounded=1;jumpStyle=none;html=1;shadow=0;labelBackgroundColor=none;startArrow=none;startFill=0;jettySize=auto;orthogonalLoop=1;strokeColor=#006EAF;strokeWidth=3;fontFamily=Helvetica;fontSize=14;fontColor=#FFFFFF;spacing=5;fontStyle=1;fillColor=#1ba1e2;entryX=0;entryY=0.5;entryDx=0;entryDy=0;" parent="1" source="1774" target="rD7ASvJOiuTUFyC9umSX-1793" edge="1">
          <mxGeometry relative="1" as="geometry">
            <mxPoint x="764.53" y="909.5" as="sourcePoint" />
            <mxPoint x="825.53" y="866.5" as="targetPoint" />
          </mxGeometry>
        </mxCell>
        <mxCell id="rD7ASvJOiuTUFyC9umSX-1799" value="" style="edgeStyle=none;rounded=1;jumpStyle=none;html=1;shadow=0;labelBackgroundColor=none;startArrow=none;startFill=0;jettySize=auto;orthogonalLoop=1;strokeColor=#006EAF;strokeWidth=3;fontFamily=Helvetica;fontSize=14;fontColor=#FFFFFF;spacing=5;fontStyle=1;fillColor=#1ba1e2;entryX=0;entryY=0.5;entryDx=0;entryDy=0;" parent="1" source="1774" target="rD7ASvJOiuTUFyC9umSX-1794" edge="1">
          <mxGeometry relative="1" as="geometry">
            <mxPoint x="764.53" y="925.5" as="sourcePoint" />
            <mxPoint x="825.53" y="911.5" as="targetPoint" />
          </mxGeometry>
        </mxCell>
        <mxCell id="rD7ASvJOiuTUFyC9umSX-1800" value="" style="edgeStyle=none;rounded=1;jumpStyle=none;html=1;shadow=0;labelBackgroundColor=none;startArrow=none;startFill=0;jettySize=auto;orthogonalLoop=1;strokeColor=#006EAF;strokeWidth=3;fontFamily=Helvetica;fontSize=14;fontColor=#FFFFFF;spacing=5;fontStyle=1;fillColor=#1ba1e2;entryX=0;entryY=0.5;entryDx=0;entryDy=0;" parent="1" source="1774" target="rD7ASvJOiuTUFyC9umSX-1795" edge="1">
          <mxGeometry relative="1" as="geometry">
            <mxPoint x="764.53" y="941.5" as="sourcePoint" />
            <mxPoint x="825.53" y="955.5" as="targetPoint" />
          </mxGeometry>
        </mxCell>
        <mxCell id="rD7ASvJOiuTUFyC9umSX-1801" value="цены объектов и услуг" style="rounded=1;whiteSpace=wrap;html=1;shadow=0;labelBackgroundColor=none;strokeColor=#006EAF;strokeWidth=3;fillColor=#1ba1e2;fontFamily=Helvetica;fontSize=14;fontColor=#ffffff;align=center;spacing=5;fontStyle=0;arcSize=7;perimeterSpacing=2;" parent="1" vertex="1">
          <mxGeometry x="1010" y="220" width="150" height="60" as="geometry" />
        </mxCell>
        <mxCell id="rD7ASvJOiuTUFyC9umSX-1802" value="утечка данных&lt;div&gt;риск незначительный&lt;br&gt;&lt;/div&gt;" style="rounded=1;whiteSpace=wrap;html=1;shadow=0;labelBackgroundColor=none;strokeColor=#006EAF;strokeWidth=3;fillColor=#1ba1e2;fontFamily=Helvetica;fontSize=14;fontColor=#ffffff;align=center;spacing=5;fontStyle=0;arcSize=7;perimeterSpacing=2;" parent="1" vertex="1">
          <mxGeometry x="1225" y="100" width="150" height="60" as="geometry" />
        </mxCell>
        <mxCell id="rD7ASvJOiuTUFyC9umSX-1803" value="" style="edgeStyle=none;rounded=1;jumpStyle=none;html=1;shadow=0;labelBackgroundColor=none;startArrow=none;startFill=0;jettySize=auto;orthogonalLoop=1;strokeColor=#006EAF;strokeWidth=3;fontFamily=Helvetica;fontSize=14;fontColor=#FFFFFF;spacing=5;fontStyle=1;fillColor=#1ba1e2;entryX=0;entryY=0.5;entryDx=0;entryDy=0;" parent="1" source="rD7ASvJOiuTUFyC9umSX-1801" target="rD7ASvJOiuTUFyC9umSX-1802" edge="1">
          <mxGeometry relative="1" as="geometry">
            <mxPoint x="1160" y="232" as="sourcePoint" />
            <mxPoint x="1216" y="216" as="targetPoint" />
          </mxGeometry>
        </mxCell>
        <mxCell id="rD7ASvJOiuTUFyC9umSX-1804" value="потеря данных&lt;div&gt;риск незначительный&lt;br&gt;&lt;/div&gt;" style="rounded=1;whiteSpace=wrap;html=1;shadow=0;labelBackgroundColor=none;strokeColor=#006EAF;strokeWidth=3;fillColor=#1ba1e2;fontFamily=Helvetica;fontSize=14;fontColor=#ffffff;align=center;spacing=5;fontStyle=0;arcSize=7;perimeterSpacing=2;" parent="1" vertex="1">
          <mxGeometry x="1225" y="160" width="150" height="60" as="geometry" />
        </mxCell>
        <mxCell id="rD7ASvJOiuTUFyC9umSX-1805" value="искажение данных&lt;div&gt;риск критический&lt;br&gt;&lt;/div&gt;" style="rounded=1;whiteSpace=wrap;html=1;shadow=0;labelBackgroundColor=none;strokeColor=#006EAF;strokeWidth=3;fillColor=#1ba1e2;fontFamily=Helvetica;fontSize=14;fontColor=#ffffff;align=center;spacing=5;fontStyle=0;arcSize=7;perimeterSpacing=2;" parent="1" vertex="1">
          <mxGeometry x="1225" y="221" width="150" height="60" as="geometry" />
        </mxCell>
        <mxCell id="rD7ASvJOiuTUFyC9umSX-1806" value="некачественные данные&lt;div&gt;риск критический&lt;br&gt;&lt;/div&gt;" style="rounded=1;whiteSpace=wrap;html=1;shadow=0;labelBackgroundColor=none;strokeColor=#006EAF;strokeWidth=3;fillColor=#1ba1e2;fontFamily=Helvetica;fontSize=14;fontColor=#ffffff;align=center;spacing=5;fontStyle=0;arcSize=7;perimeterSpacing=2;" parent="1" vertex="1">
          <mxGeometry x="1225" y="281" width="150" height="60" as="geometry" />
        </mxCell>
        <mxCell id="rD7ASvJOiuTUFyC9umSX-1807" value="обесценивание данных&lt;div&gt;риск незначительный&lt;br&gt;&lt;/div&gt;" style="rounded=1;whiteSpace=wrap;html=1;shadow=0;labelBackgroundColor=none;strokeColor=#006EAF;strokeWidth=3;fillColor=#1ba1e2;fontFamily=Helvetica;fontSize=14;fontColor=#ffffff;align=center;spacing=5;fontStyle=0;arcSize=7;perimeterSpacing=2;" parent="1" vertex="1">
          <mxGeometry x="1225" y="341" width="150" height="60" as="geometry" />
        </mxCell>
        <mxCell id="rD7ASvJOiuTUFyC9umSX-1808" value="" style="edgeStyle=none;rounded=1;jumpStyle=none;html=1;shadow=0;labelBackgroundColor=none;startArrow=none;startFill=0;jettySize=auto;orthogonalLoop=1;strokeColor=#006EAF;strokeWidth=3;fontFamily=Helvetica;fontSize=14;fontColor=#FFFFFF;spacing=5;fontStyle=1;fillColor=#1ba1e2;entryX=0;entryY=0.5;entryDx=0;entryDy=0;" parent="1" source="rD7ASvJOiuTUFyC9umSX-1801" target="rD7ASvJOiuTUFyC9umSX-1804" edge="1">
          <mxGeometry relative="1" as="geometry">
            <mxPoint x="1172" y="244.5" as="sourcePoint" />
            <mxPoint x="1233" y="156.5" as="targetPoint" />
          </mxGeometry>
        </mxCell>
        <mxCell id="rD7ASvJOiuTUFyC9umSX-1809" value="" style="edgeStyle=none;rounded=1;jumpStyle=none;html=1;shadow=0;labelBackgroundColor=none;startArrow=none;startFill=0;jettySize=auto;orthogonalLoop=1;strokeColor=#006EAF;strokeWidth=3;fontFamily=Helvetica;fontSize=14;fontColor=#FFFFFF;spacing=5;fontStyle=1;fillColor=#1ba1e2;entryX=0;entryY=0.5;entryDx=0;entryDy=0;" parent="1" source="rD7ASvJOiuTUFyC9umSX-1801" target="rD7ASvJOiuTUFyC9umSX-1805" edge="1">
          <mxGeometry relative="1" as="geometry">
            <mxPoint x="1172" y="244.5" as="sourcePoint" />
            <mxPoint x="1233" y="216.5" as="targetPoint" />
          </mxGeometry>
        </mxCell>
        <mxCell id="rD7ASvJOiuTUFyC9umSX-1810" value="" style="edgeStyle=none;rounded=1;jumpStyle=none;html=1;shadow=0;labelBackgroundColor=none;startArrow=none;startFill=0;jettySize=auto;orthogonalLoop=1;strokeColor=#006EAF;strokeWidth=3;fontFamily=Helvetica;fontSize=14;fontColor=#FFFFFF;spacing=5;fontStyle=1;fillColor=#1ba1e2;entryX=0;entryY=0.5;entryDx=0;entryDy=0;" parent="1" source="rD7ASvJOiuTUFyC9umSX-1801" target="rD7ASvJOiuTUFyC9umSX-1806" edge="1">
          <mxGeometry relative="1" as="geometry">
            <mxPoint x="1172" y="260.5" as="sourcePoint" />
            <mxPoint x="1233" y="261.5" as="targetPoint" />
          </mxGeometry>
        </mxCell>
        <mxCell id="rD7ASvJOiuTUFyC9umSX-1811" value="" style="edgeStyle=none;rounded=1;jumpStyle=none;html=1;shadow=0;labelBackgroundColor=none;startArrow=none;startFill=0;jettySize=auto;orthogonalLoop=1;strokeColor=#006EAF;strokeWidth=3;fontFamily=Helvetica;fontSize=14;fontColor=#FFFFFF;spacing=5;fontStyle=1;fillColor=#1ba1e2;entryX=-0.002;entryY=0.536;entryDx=0;entryDy=0;entryPerimeter=0;" parent="1" source="rD7ASvJOiuTUFyC9umSX-1801" target="rD7ASvJOiuTUFyC9umSX-1807" edge="1">
          <mxGeometry relative="1" as="geometry">
            <mxPoint x="1172" y="276.5" as="sourcePoint" />
            <mxPoint x="1233" y="305.5" as="targetPoint" />
          </mxGeometry>
        </mxCell>
        <mxCell id="rD7ASvJOiuTUFyC9umSX-1812" value="" style="edgeStyle=none;rounded=0;jumpStyle=none;html=1;shadow=0;labelBackgroundColor=none;startArrow=none;startFill=0;endArrow=classic;endFill=1;jettySize=auto;orthogonalLoop=1;strokeColor=#006EAF;strokeWidth=3;fontFamily=Helvetica;fontSize=16;fontColor=#23445D;spacing=5;fillColor=#1ba1e2;" parent="1" source="1771" target="rD7ASvJOiuTUFyC9umSX-1801" edge="1">
          <mxGeometry relative="1" as="geometry">
            <mxPoint x="657" y="426" as="sourcePoint" />
            <mxPoint x="803" y="426" as="targetPoint" />
          </mxGeometry>
        </mxCell>
        <mxCell id="rD7ASvJOiuTUFyC9umSX-1813" value="утечка данных&lt;div&gt;риск значительный&lt;br&gt;&lt;/div&gt;" style="rounded=1;whiteSpace=wrap;html=1;shadow=0;labelBackgroundColor=none;strokeColor=#006EAF;strokeWidth=3;fillColor=#1ba1e2;fontFamily=Helvetica;fontSize=14;fontColor=#ffffff;align=center;spacing=5;fontStyle=0;arcSize=7;perimeterSpacing=2;" parent="1" vertex="1">
          <mxGeometry x="-230" y="430.5" width="150" height="60" as="geometry" />
        </mxCell>
        <mxCell id="rD7ASvJOiuTUFyC9umSX-1814" value="потеря данных&lt;div&gt;риск незначительный&lt;br&gt;&lt;/div&gt;" style="rounded=1;whiteSpace=wrap;html=1;shadow=0;labelBackgroundColor=none;strokeColor=#006EAF;strokeWidth=3;fillColor=#1ba1e2;fontFamily=Helvetica;fontSize=14;fontColor=#ffffff;align=center;spacing=5;fontStyle=0;arcSize=7;perimeterSpacing=2;" parent="1" vertex="1">
          <mxGeometry x="-230" y="490.5" width="150" height="60" as="geometry" />
        </mxCell>
        <mxCell id="rD7ASvJOiuTUFyC9umSX-1815" value="искажение данных&lt;div&gt;риск незначительный&lt;br&gt;&lt;/div&gt;" style="rounded=1;whiteSpace=wrap;html=1;shadow=0;labelBackgroundColor=none;strokeColor=#006EAF;strokeWidth=3;fillColor=#1ba1e2;fontFamily=Helvetica;fontSize=14;fontColor=#ffffff;align=center;spacing=5;fontStyle=0;arcSize=7;perimeterSpacing=2;" parent="1" vertex="1">
          <mxGeometry x="-230" y="551.5" width="150" height="60" as="geometry" />
        </mxCell>
        <mxCell id="rD7ASvJOiuTUFyC9umSX-1816" value="некачественные данные&lt;div&gt;риск незначительный&lt;br&gt;&lt;/div&gt;" style="rounded=1;whiteSpace=wrap;html=1;shadow=0;labelBackgroundColor=none;strokeColor=#006EAF;strokeWidth=3;fillColor=#1ba1e2;fontFamily=Helvetica;fontSize=14;fontColor=#ffffff;align=center;spacing=5;fontStyle=0;arcSize=7;perimeterSpacing=2;" parent="1" vertex="1">
          <mxGeometry x="-230" y="611.5" width="150" height="60" as="geometry" />
        </mxCell>
        <mxCell id="rD7ASvJOiuTUFyC9umSX-1817" value="обесценивание данных&lt;div&gt;риск незначительный&lt;br&gt;&lt;/div&gt;" style="rounded=1;whiteSpace=wrap;html=1;shadow=0;labelBackgroundColor=none;strokeColor=#006EAF;strokeWidth=3;fillColor=#1ba1e2;fontFamily=Helvetica;fontSize=14;fontColor=#ffffff;align=center;spacing=5;fontStyle=0;arcSize=7;perimeterSpacing=2;" parent="1" vertex="1">
          <mxGeometry x="-230" y="671.5" width="150" height="60" as="geometry" />
        </mxCell>
        <mxCell id="rD7ASvJOiuTUFyC9umSX-1818" value="" style="edgeStyle=none;rounded=1;jumpStyle=none;html=1;shadow=0;labelBackgroundColor=none;startArrow=none;startFill=0;jettySize=auto;orthogonalLoop=1;strokeColor=#006EAF;strokeWidth=3;fontFamily=Helvetica;fontSize=14;fontColor=#FFFFFF;spacing=5;fontStyle=1;fillColor=#1ba1e2;entryX=1;entryY=0.5;entryDx=0;entryDy=0;" parent="1" source="1755" target="rD7ASvJOiuTUFyC9umSX-1813" edge="1">
          <mxGeometry relative="1" as="geometry">
            <mxPoint x="193" y="593.5" as="sourcePoint" />
            <mxPoint x="146" y="593.5" as="targetPoint" />
          </mxGeometry>
        </mxCell>
        <mxCell id="rD7ASvJOiuTUFyC9umSX-1819" value="" style="edgeStyle=none;rounded=1;jumpStyle=none;html=1;shadow=0;labelBackgroundColor=none;startArrow=none;startFill=0;jettySize=auto;orthogonalLoop=1;strokeColor=#006EAF;strokeWidth=3;fontFamily=Helvetica;fontSize=14;fontColor=#FFFFFF;spacing=5;fontStyle=1;fillColor=#1ba1e2;entryX=1;entryY=0.5;entryDx=0;entryDy=0;" parent="1" source="1755" target="rD7ASvJOiuTUFyC9umSX-1814" edge="1">
          <mxGeometry relative="1" as="geometry">
            <mxPoint x="33" y="561.5" as="sourcePoint" />
            <mxPoint x="-68" y="470.5" as="targetPoint" />
          </mxGeometry>
        </mxCell>
        <mxCell id="rD7ASvJOiuTUFyC9umSX-1820" value="" style="edgeStyle=none;rounded=1;jumpStyle=none;html=1;shadow=0;labelBackgroundColor=none;startArrow=none;startFill=0;jettySize=auto;orthogonalLoop=1;strokeColor=#006EAF;strokeWidth=3;fontFamily=Helvetica;fontSize=14;fontColor=#FFFFFF;spacing=5;fontStyle=1;fillColor=#1ba1e2;entryX=1;entryY=0.5;entryDx=0;entryDy=0;" parent="1" source="1755" target="rD7ASvJOiuTUFyC9umSX-1815" edge="1">
          <mxGeometry relative="1" as="geometry">
            <mxPoint x="-1" y="561.5" as="sourcePoint" />
            <mxPoint x="-68" y="530.5" as="targetPoint" />
          </mxGeometry>
        </mxCell>
        <mxCell id="rD7ASvJOiuTUFyC9umSX-1821" value="" style="edgeStyle=none;rounded=1;jumpStyle=none;html=1;shadow=0;labelBackgroundColor=none;startArrow=none;startFill=0;jettySize=auto;orthogonalLoop=1;strokeColor=#006EAF;strokeWidth=3;fontFamily=Helvetica;fontSize=14;fontColor=#FFFFFF;spacing=5;fontStyle=1;fillColor=#1ba1e2;entryX=1;entryY=0.5;entryDx=0;entryDy=0;" parent="1" source="1755" target="rD7ASvJOiuTUFyC9umSX-1816" edge="1">
          <mxGeometry relative="1" as="geometry">
            <mxPoint x="-8" y="592.5" as="sourcePoint" />
            <mxPoint x="-68" y="591.5" as="targetPoint" />
          </mxGeometry>
        </mxCell>
        <mxCell id="rD7ASvJOiuTUFyC9umSX-1822" value="" style="edgeStyle=none;rounded=1;jumpStyle=none;html=1;shadow=0;labelBackgroundColor=none;startArrow=none;startFill=0;jettySize=auto;orthogonalLoop=1;strokeColor=#006EAF;strokeWidth=3;fontFamily=Helvetica;fontSize=14;fontColor=#FFFFFF;spacing=5;fontStyle=1;fillColor=#1ba1e2;entryX=1;entryY=0.5;entryDx=0;entryDy=0;" parent="1" source="1755" target="rD7ASvJOiuTUFyC9umSX-1817" edge="1">
          <mxGeometry relative="1" as="geometry">
            <mxPoint x="-6" y="625.5" as="sourcePoint" />
            <mxPoint x="-68" y="651.5" as="targetPoint" />
          </mxGeometry>
        </mxCell>
        <mxCell id="rD7ASvJOiuTUFyC9umSX-1823" value="данные онлайн туров" style="rounded=1;whiteSpace=wrap;html=1;shadow=0;labelBackgroundColor=none;strokeColor=#006EAF;strokeWidth=3;fillColor=#1ba1e2;fontFamily=Helvetica;fontSize=14;fontColor=#ffffff;align=center;spacing=5;fontStyle=0;arcSize=7;perimeterSpacing=2;" parent="1" vertex="1">
          <mxGeometry x="1010" y="550" width="150" height="60" as="geometry" />
        </mxCell>
        <mxCell id="rD7ASvJOiuTUFyC9umSX-1824" value="утечка данных&lt;div&gt;риск значительный&lt;br&gt;&lt;/div&gt;" style="rounded=1;whiteSpace=wrap;html=1;shadow=0;labelBackgroundColor=none;strokeColor=#006EAF;strokeWidth=3;fillColor=#1ba1e2;fontFamily=Helvetica;fontSize=14;fontColor=#ffffff;align=center;spacing=5;fontStyle=0;arcSize=7;perimeterSpacing=2;" parent="1" vertex="1">
          <mxGeometry x="1225" y="430" width="150" height="60" as="geometry" />
        </mxCell>
        <mxCell id="rD7ASvJOiuTUFyC9umSX-1825" value="" style="edgeStyle=none;rounded=1;jumpStyle=none;html=1;shadow=0;labelBackgroundColor=none;startArrow=none;startFill=0;jettySize=auto;orthogonalLoop=1;strokeColor=#006EAF;strokeWidth=3;fontFamily=Helvetica;fontSize=14;fontColor=#FFFFFF;spacing=5;fontStyle=1;fillColor=#1ba1e2;entryX=0;entryY=0.5;entryDx=0;entryDy=0;" parent="1" source="rD7ASvJOiuTUFyC9umSX-1823" target="rD7ASvJOiuTUFyC9umSX-1824" edge="1">
          <mxGeometry relative="1" as="geometry">
            <mxPoint x="1160" y="562" as="sourcePoint" />
            <mxPoint x="1216" y="546" as="targetPoint" />
          </mxGeometry>
        </mxCell>
        <mxCell id="rD7ASvJOiuTUFyC9umSX-1826" value="потеря данных&lt;div&gt;риск значительный&lt;br&gt;&lt;/div&gt;" style="rounded=1;whiteSpace=wrap;html=1;shadow=0;labelBackgroundColor=none;strokeColor=#006EAF;strokeWidth=3;fillColor=#1ba1e2;fontFamily=Helvetica;fontSize=14;fontColor=#ffffff;align=center;spacing=5;fontStyle=0;arcSize=7;perimeterSpacing=2;" parent="1" vertex="1">
          <mxGeometry x="1225" y="490" width="150" height="60" as="geometry" />
        </mxCell>
        <mxCell id="rD7ASvJOiuTUFyC9umSX-1827" value="искажение данных&lt;div&gt;риск значительный&lt;br&gt;&lt;/div&gt;" style="rounded=1;whiteSpace=wrap;html=1;shadow=0;labelBackgroundColor=none;strokeColor=#006EAF;strokeWidth=3;fillColor=#1ba1e2;fontFamily=Helvetica;fontSize=14;fontColor=#ffffff;align=center;spacing=5;fontStyle=0;arcSize=7;perimeterSpacing=2;" parent="1" vertex="1">
          <mxGeometry x="1225" y="551" width="150" height="60" as="geometry" />
        </mxCell>
        <mxCell id="rD7ASvJOiuTUFyC9umSX-1828" value="некачественные данные&lt;div&gt;риск значительный&lt;br&gt;&lt;/div&gt;" style="rounded=1;whiteSpace=wrap;html=1;shadow=0;labelBackgroundColor=none;strokeColor=#006EAF;strokeWidth=3;fillColor=#1ba1e2;fontFamily=Helvetica;fontSize=14;fontColor=#ffffff;align=center;spacing=5;fontStyle=0;arcSize=7;perimeterSpacing=2;" parent="1" vertex="1">
          <mxGeometry x="1225" y="611" width="150" height="60" as="geometry" />
        </mxCell>
        <mxCell id="rD7ASvJOiuTUFyC9umSX-1829" value="обесценивание данных&lt;div&gt;риск незначительный&lt;br&gt;&lt;/div&gt;" style="rounded=1;whiteSpace=wrap;html=1;shadow=0;labelBackgroundColor=none;strokeColor=#006EAF;strokeWidth=3;fillColor=#1ba1e2;fontFamily=Helvetica;fontSize=14;fontColor=#ffffff;align=center;spacing=5;fontStyle=0;arcSize=7;perimeterSpacing=2;" parent="1" vertex="1">
          <mxGeometry x="1225" y="671" width="150" height="60" as="geometry" />
        </mxCell>
        <mxCell id="rD7ASvJOiuTUFyC9umSX-1830" value="" style="edgeStyle=none;rounded=1;jumpStyle=none;html=1;shadow=0;labelBackgroundColor=none;startArrow=none;startFill=0;jettySize=auto;orthogonalLoop=1;strokeColor=#006EAF;strokeWidth=3;fontFamily=Helvetica;fontSize=14;fontColor=#FFFFFF;spacing=5;fontStyle=1;fillColor=#1ba1e2;entryX=0;entryY=0.5;entryDx=0;entryDy=0;" parent="1" source="rD7ASvJOiuTUFyC9umSX-1823" target="rD7ASvJOiuTUFyC9umSX-1826" edge="1">
          <mxGeometry relative="1" as="geometry">
            <mxPoint x="1172" y="574.5" as="sourcePoint" />
            <mxPoint x="1233" y="486.5" as="targetPoint" />
          </mxGeometry>
        </mxCell>
        <mxCell id="rD7ASvJOiuTUFyC9umSX-1831" value="" style="edgeStyle=none;rounded=1;jumpStyle=none;html=1;shadow=0;labelBackgroundColor=none;startArrow=none;startFill=0;jettySize=auto;orthogonalLoop=1;strokeColor=#006EAF;strokeWidth=3;fontFamily=Helvetica;fontSize=14;fontColor=#FFFFFF;spacing=5;fontStyle=1;fillColor=#1ba1e2;entryX=0;entryY=0.5;entryDx=0;entryDy=0;" parent="1" source="rD7ASvJOiuTUFyC9umSX-1823" target="rD7ASvJOiuTUFyC9umSX-1827" edge="1">
          <mxGeometry relative="1" as="geometry">
            <mxPoint x="1172" y="574.5" as="sourcePoint" />
            <mxPoint x="1233" y="546.5" as="targetPoint" />
          </mxGeometry>
        </mxCell>
        <mxCell id="rD7ASvJOiuTUFyC9umSX-1832" value="" style="edgeStyle=none;rounded=1;jumpStyle=none;html=1;shadow=0;labelBackgroundColor=none;startArrow=none;startFill=0;jettySize=auto;orthogonalLoop=1;strokeColor=#006EAF;strokeWidth=3;fontFamily=Helvetica;fontSize=14;fontColor=#FFFFFF;spacing=5;fontStyle=1;fillColor=#1ba1e2;entryX=0;entryY=0.5;entryDx=0;entryDy=0;" parent="1" source="rD7ASvJOiuTUFyC9umSX-1823" target="rD7ASvJOiuTUFyC9umSX-1828" edge="1">
          <mxGeometry relative="1" as="geometry">
            <mxPoint x="1172" y="590.5" as="sourcePoint" />
            <mxPoint x="1233" y="591.5" as="targetPoint" />
          </mxGeometry>
        </mxCell>
        <mxCell id="rD7ASvJOiuTUFyC9umSX-1833" value="" style="edgeStyle=none;rounded=1;jumpStyle=none;html=1;shadow=0;labelBackgroundColor=none;startArrow=none;startFill=0;jettySize=auto;orthogonalLoop=1;strokeColor=#006EAF;strokeWidth=3;fontFamily=Helvetica;fontSize=14;fontColor=#FFFFFF;spacing=5;fontStyle=1;fillColor=#1ba1e2;entryX=-0.002;entryY=0.536;entryDx=0;entryDy=0;entryPerimeter=0;" parent="1" source="rD7ASvJOiuTUFyC9umSX-1823" target="rD7ASvJOiuTUFyC9umSX-1829" edge="1">
          <mxGeometry relative="1" as="geometry">
            <mxPoint x="1172" y="606.5" as="sourcePoint" />
            <mxPoint x="1233" y="635.5" as="targetPoint" />
          </mxGeometry>
        </mxCell>
        <mxCell id="rD7ASvJOiuTUFyC9umSX-1834" value="" style="edgeStyle=none;rounded=1;jumpStyle=none;html=1;shadow=0;labelBackgroundColor=none;startArrow=none;startFill=0;jettySize=auto;orthogonalLoop=1;strokeColor=#006EAF;strokeWidth=3;fontFamily=Helvetica;fontSize=14;fontColor=#FFFFFF;spacing=5;fontStyle=1;fillColor=#1ba1e2;" parent="1" source="1771" target="rD7ASvJOiuTUFyC9umSX-1823" edge="1">
          <mxGeometry relative="1" as="geometry">
            <mxPoint x="1132" y="558" as="sourcePoint" />
            <mxPoint x="1233" y="470" as="targetPoint" />
          </mxGeometry>
        </mxCell>
        <mxCell id="rD7ASvJOiuTUFyC9umSX-1835" value="данные клиентов" style="rounded=1;whiteSpace=wrap;html=1;shadow=0;labelBackgroundColor=none;strokeColor=#006EAF;strokeWidth=3;fillColor=#1ba1e2;fontFamily=Helvetica;fontSize=14;fontColor=#ffffff;align=center;spacing=5;fontStyle=0;arcSize=7;perimeterSpacing=2;" parent="1" vertex="1">
          <mxGeometry x="394" y="872.5" width="150" height="60" as="geometry" />
        </mxCell>
        <mxCell id="rD7ASvJOiuTUFyC9umSX-1836" value="утечка данных&lt;div&gt;риск критический&lt;br&gt;&lt;/div&gt;" style="rounded=1;whiteSpace=wrap;html=1;shadow=0;labelBackgroundColor=none;strokeColor=#006EAF;strokeWidth=3;fillColor=#1ba1e2;fontFamily=Helvetica;fontSize=14;fontColor=#ffffff;align=center;spacing=5;fontStyle=0;arcSize=7;perimeterSpacing=2;" parent="1" vertex="1">
          <mxGeometry x="180" y="750" width="150" height="60" as="geometry" />
        </mxCell>
        <mxCell id="rD7ASvJOiuTUFyC9umSX-1837" value="потеря данных&lt;div&gt;риск незначительный&lt;br&gt;&lt;/div&gt;" style="rounded=1;whiteSpace=wrap;html=1;shadow=0;labelBackgroundColor=none;strokeColor=#006EAF;strokeWidth=3;fillColor=#1ba1e2;fontFamily=Helvetica;fontSize=14;fontColor=#ffffff;align=center;spacing=5;fontStyle=0;arcSize=7;perimeterSpacing=2;" parent="1" vertex="1">
          <mxGeometry x="180" y="810" width="150" height="60" as="geometry" />
        </mxCell>
        <mxCell id="rD7ASvJOiuTUFyC9umSX-1838" value="искажение данных&lt;div&gt;риск значительный&lt;br&gt;&lt;/div&gt;" style="rounded=1;whiteSpace=wrap;html=1;shadow=0;labelBackgroundColor=none;strokeColor=#006EAF;strokeWidth=3;fillColor=#1ba1e2;fontFamily=Helvetica;fontSize=14;fontColor=#ffffff;align=center;spacing=5;fontStyle=0;arcSize=7;perimeterSpacing=2;" parent="1" vertex="1">
          <mxGeometry x="180" y="871" width="150" height="60" as="geometry" />
        </mxCell>
        <mxCell id="rD7ASvJOiuTUFyC9umSX-1839" value="некачественные данные&lt;div&gt;риск значительный&lt;br&gt;&lt;/div&gt;" style="rounded=1;whiteSpace=wrap;html=1;shadow=0;labelBackgroundColor=none;strokeColor=#006EAF;strokeWidth=3;fillColor=#1ba1e2;fontFamily=Helvetica;fontSize=14;fontColor=#ffffff;align=center;spacing=5;fontStyle=0;arcSize=7;perimeterSpacing=2;" parent="1" vertex="1">
          <mxGeometry x="180" y="931" width="150" height="60" as="geometry" />
        </mxCell>
        <mxCell id="rD7ASvJOiuTUFyC9umSX-1840" value="обесценивание данных&lt;div&gt;риск незначительный&lt;br&gt;&lt;/div&gt;" style="rounded=1;whiteSpace=wrap;html=1;shadow=0;labelBackgroundColor=none;strokeColor=#006EAF;strokeWidth=3;fillColor=#1ba1e2;fontFamily=Helvetica;fontSize=14;fontColor=#ffffff;align=center;spacing=5;fontStyle=0;arcSize=7;perimeterSpacing=2;" parent="1" vertex="1">
          <mxGeometry x="180" y="991" width="150" height="60" as="geometry" />
        </mxCell>
        <mxCell id="rD7ASvJOiuTUFyC9umSX-1841" value="" style="edgeStyle=none;rounded=1;jumpStyle=none;html=1;shadow=0;labelBackgroundColor=none;startArrow=none;startFill=0;jettySize=auto;orthogonalLoop=1;strokeColor=#006EAF;strokeWidth=3;fontFamily=Helvetica;fontSize=14;fontColor=#FFFFFF;spacing=5;fontStyle=1;fillColor=#1ba1e2;entryX=1;entryY=0.5;entryDx=0;entryDy=0;" parent="1" source="rD7ASvJOiuTUFyC9umSX-1835" target="rD7ASvJOiuTUFyC9umSX-1836" edge="1">
          <mxGeometry relative="1" as="geometry">
            <mxPoint x="603" y="913" as="sourcePoint" />
            <mxPoint x="556" y="913" as="targetPoint" />
          </mxGeometry>
        </mxCell>
        <mxCell id="rD7ASvJOiuTUFyC9umSX-1842" value="" style="edgeStyle=none;rounded=1;jumpStyle=none;html=1;shadow=0;labelBackgroundColor=none;startArrow=none;startFill=0;jettySize=auto;orthogonalLoop=1;strokeColor=#006EAF;strokeWidth=3;fontFamily=Helvetica;fontSize=14;fontColor=#FFFFFF;spacing=5;fontStyle=1;fillColor=#1ba1e2;entryX=1;entryY=0.5;entryDx=0;entryDy=0;" parent="1" source="rD7ASvJOiuTUFyC9umSX-1835" target="rD7ASvJOiuTUFyC9umSX-1837" edge="1">
          <mxGeometry relative="1" as="geometry">
            <mxPoint x="443" y="881" as="sourcePoint" />
            <mxPoint x="342" y="790" as="targetPoint" />
          </mxGeometry>
        </mxCell>
        <mxCell id="rD7ASvJOiuTUFyC9umSX-1843" value="" style="edgeStyle=none;rounded=1;jumpStyle=none;html=1;shadow=0;labelBackgroundColor=none;startArrow=none;startFill=0;jettySize=auto;orthogonalLoop=1;strokeColor=#006EAF;strokeWidth=3;fontFamily=Helvetica;fontSize=14;fontColor=#FFFFFF;spacing=5;fontStyle=1;fillColor=#1ba1e2;entryX=1;entryY=0.5;entryDx=0;entryDy=0;" parent="1" source="rD7ASvJOiuTUFyC9umSX-1835" target="rD7ASvJOiuTUFyC9umSX-1838" edge="1">
          <mxGeometry relative="1" as="geometry">
            <mxPoint x="409" y="881" as="sourcePoint" />
            <mxPoint x="342" y="850" as="targetPoint" />
          </mxGeometry>
        </mxCell>
        <mxCell id="rD7ASvJOiuTUFyC9umSX-1844" value="" style="edgeStyle=none;rounded=1;jumpStyle=none;html=1;shadow=0;labelBackgroundColor=none;startArrow=none;startFill=0;jettySize=auto;orthogonalLoop=1;strokeColor=#006EAF;strokeWidth=3;fontFamily=Helvetica;fontSize=14;fontColor=#FFFFFF;spacing=5;fontStyle=1;fillColor=#1ba1e2;entryX=1;entryY=0.5;entryDx=0;entryDy=0;" parent="1" source="rD7ASvJOiuTUFyC9umSX-1835" target="rD7ASvJOiuTUFyC9umSX-1839" edge="1">
          <mxGeometry relative="1" as="geometry">
            <mxPoint x="402" y="912" as="sourcePoint" />
            <mxPoint x="342" y="911" as="targetPoint" />
          </mxGeometry>
        </mxCell>
        <mxCell id="rD7ASvJOiuTUFyC9umSX-1845" value="" style="edgeStyle=none;rounded=1;jumpStyle=none;html=1;shadow=0;labelBackgroundColor=none;startArrow=none;startFill=0;jettySize=auto;orthogonalLoop=1;strokeColor=#006EAF;strokeWidth=3;fontFamily=Helvetica;fontSize=14;fontColor=#FFFFFF;spacing=5;fontStyle=1;fillColor=#1ba1e2;entryX=1;entryY=0.5;entryDx=0;entryDy=0;" parent="1" source="rD7ASvJOiuTUFyC9umSX-1835" target="rD7ASvJOiuTUFyC9umSX-1840" edge="1">
          <mxGeometry relative="1" as="geometry">
            <mxPoint x="404" y="945" as="sourcePoint" />
            <mxPoint x="342" y="971" as="targetPoint" />
          </mxGeometry>
        </mxCell>
        <mxCell id="rD7ASvJOiuTUFyC9umSX-1846" value="" style="edgeStyle=none;rounded=1;jumpStyle=none;html=1;shadow=0;labelBackgroundColor=none;startArrow=none;startFill=0;jettySize=auto;orthogonalLoop=1;strokeColor=#006EAF;strokeWidth=3;fontFamily=Helvetica;fontSize=14;fontColor=#FFFFFF;spacing=5;fontStyle=1;fillColor=#1ba1e2;" parent="1" source="1760" target="rD7ASvJOiuTUFyC9umSX-1835" edge="1">
          <mxGeometry relative="1" as="geometry">
            <mxPoint x="545.515151515152" y="802.5000000000005" as="sourcePoint" />
            <mxPoint x="580" y="879" as="targetPoint" />
          </mxGeometry>
        </mxCell>
        <mxCell id="rD7ASvJOiuTUFyC9umSX-1847" value="данные сотрудников" style="rounded=1;whiteSpace=wrap;html=1;shadow=0;labelBackgroundColor=none;strokeColor=#006EAF;strokeWidth=3;fillColor=#1ba1e2;fontFamily=Helvetica;fontSize=14;fontColor=#ffffff;align=center;spacing=5;fontStyle=0;arcSize=7;perimeterSpacing=2;" parent="1" vertex="1">
          <mxGeometry x="-16" y="212.5" width="150" height="60" as="geometry" />
        </mxCell>
        <mxCell id="rD7ASvJOiuTUFyC9umSX-1848" value="утечка данных&lt;div&gt;риск критический&lt;/div&gt;" style="rounded=1;whiteSpace=wrap;html=1;shadow=0;labelBackgroundColor=none;strokeColor=#006EAF;strokeWidth=3;fillColor=#1ba1e2;fontFamily=Helvetica;fontSize=14;fontColor=#ffffff;align=center;spacing=5;fontStyle=0;arcSize=7;perimeterSpacing=2;" parent="1" vertex="1">
          <mxGeometry x="-230" y="90" width="150" height="60" as="geometry" />
        </mxCell>
        <mxCell id="rD7ASvJOiuTUFyC9umSX-1849" value="потеря данных&lt;div&gt;риск незначительный&lt;br&gt;&lt;/div&gt;" style="rounded=1;whiteSpace=wrap;html=1;shadow=0;labelBackgroundColor=none;strokeColor=#006EAF;strokeWidth=3;fillColor=#1ba1e2;fontFamily=Helvetica;fontSize=14;fontColor=#ffffff;align=center;spacing=5;fontStyle=0;arcSize=7;perimeterSpacing=2;" parent="1" vertex="1">
          <mxGeometry x="-230" y="150" width="150" height="60" as="geometry" />
        </mxCell>
        <mxCell id="rD7ASvJOiuTUFyC9umSX-1850" value="искажение данных&lt;div&gt;риск значительный&lt;br&gt;&lt;/div&gt;" style="rounded=1;whiteSpace=wrap;html=1;shadow=0;labelBackgroundColor=none;strokeColor=#006EAF;strokeWidth=3;fillColor=#1ba1e2;fontFamily=Helvetica;fontSize=14;fontColor=#ffffff;align=center;spacing=5;fontStyle=0;arcSize=7;perimeterSpacing=2;" parent="1" vertex="1">
          <mxGeometry x="-230" y="211" width="150" height="60" as="geometry" />
        </mxCell>
        <mxCell id="rD7ASvJOiuTUFyC9umSX-1851" value="некачественные данные&lt;div&gt;риск незначительный&lt;br&gt;&lt;/div&gt;" style="rounded=1;whiteSpace=wrap;html=1;shadow=0;labelBackgroundColor=none;strokeColor=#006EAF;strokeWidth=3;fillColor=#1ba1e2;fontFamily=Helvetica;fontSize=14;fontColor=#ffffff;align=center;spacing=5;fontStyle=0;arcSize=7;perimeterSpacing=2;" parent="1" vertex="1">
          <mxGeometry x="-230" y="271" width="150" height="60" as="geometry" />
        </mxCell>
        <mxCell id="rD7ASvJOiuTUFyC9umSX-1852" value="обесценивание данных&lt;div&gt;риск незначительный&lt;br&gt;&lt;/div&gt;" style="rounded=1;whiteSpace=wrap;html=1;shadow=0;labelBackgroundColor=none;strokeColor=#006EAF;strokeWidth=3;fillColor=#1ba1e2;fontFamily=Helvetica;fontSize=14;fontColor=#ffffff;align=center;spacing=5;fontStyle=0;arcSize=7;perimeterSpacing=2;" parent="1" vertex="1">
          <mxGeometry x="-230" y="331" width="150" height="60" as="geometry" />
        </mxCell>
        <mxCell id="rD7ASvJOiuTUFyC9umSX-1853" value="" style="edgeStyle=none;rounded=1;jumpStyle=none;html=1;shadow=0;labelBackgroundColor=none;startArrow=none;startFill=0;jettySize=auto;orthogonalLoop=1;strokeColor=#006EAF;strokeWidth=3;fontFamily=Helvetica;fontSize=14;fontColor=#FFFFFF;spacing=5;fontStyle=1;fillColor=#1ba1e2;entryX=1;entryY=0.5;entryDx=0;entryDy=0;" parent="1" source="rD7ASvJOiuTUFyC9umSX-1847" target="rD7ASvJOiuTUFyC9umSX-1848" edge="1">
          <mxGeometry relative="1" as="geometry">
            <mxPoint x="193" y="253" as="sourcePoint" />
            <mxPoint x="146" y="253" as="targetPoint" />
          </mxGeometry>
        </mxCell>
        <mxCell id="rD7ASvJOiuTUFyC9umSX-1854" value="" style="edgeStyle=none;rounded=1;jumpStyle=none;html=1;shadow=0;labelBackgroundColor=none;startArrow=none;startFill=0;jettySize=auto;orthogonalLoop=1;strokeColor=#006EAF;strokeWidth=3;fontFamily=Helvetica;fontSize=14;fontColor=#FFFFFF;spacing=5;fontStyle=1;fillColor=#1ba1e2;entryX=1;entryY=0.5;entryDx=0;entryDy=0;" parent="1" source="rD7ASvJOiuTUFyC9umSX-1847" target="rD7ASvJOiuTUFyC9umSX-1849" edge="1">
          <mxGeometry relative="1" as="geometry">
            <mxPoint x="33" y="221" as="sourcePoint" />
            <mxPoint x="-68" y="130" as="targetPoint" />
          </mxGeometry>
        </mxCell>
        <mxCell id="rD7ASvJOiuTUFyC9umSX-1855" value="" style="edgeStyle=none;rounded=1;jumpStyle=none;html=1;shadow=0;labelBackgroundColor=none;startArrow=none;startFill=0;jettySize=auto;orthogonalLoop=1;strokeColor=#006EAF;strokeWidth=3;fontFamily=Helvetica;fontSize=14;fontColor=#FFFFFF;spacing=5;fontStyle=1;fillColor=#1ba1e2;entryX=1;entryY=0.5;entryDx=0;entryDy=0;" parent="1" source="rD7ASvJOiuTUFyC9umSX-1847" target="rD7ASvJOiuTUFyC9umSX-1850" edge="1">
          <mxGeometry relative="1" as="geometry">
            <mxPoint x="-1" y="221" as="sourcePoint" />
            <mxPoint x="-68" y="190" as="targetPoint" />
          </mxGeometry>
        </mxCell>
        <mxCell id="rD7ASvJOiuTUFyC9umSX-1856" value="" style="edgeStyle=none;rounded=1;jumpStyle=none;html=1;shadow=0;labelBackgroundColor=none;startArrow=none;startFill=0;jettySize=auto;orthogonalLoop=1;strokeColor=#006EAF;strokeWidth=3;fontFamily=Helvetica;fontSize=14;fontColor=#FFFFFF;spacing=5;fontStyle=1;fillColor=#1ba1e2;entryX=1;entryY=0.5;entryDx=0;entryDy=0;" parent="1" source="rD7ASvJOiuTUFyC9umSX-1847" target="rD7ASvJOiuTUFyC9umSX-1851" edge="1">
          <mxGeometry relative="1" as="geometry">
            <mxPoint x="-8" y="252" as="sourcePoint" />
            <mxPoint x="-68" y="251" as="targetPoint" />
          </mxGeometry>
        </mxCell>
        <mxCell id="rD7ASvJOiuTUFyC9umSX-1857" value="" style="edgeStyle=none;rounded=1;jumpStyle=none;html=1;shadow=0;labelBackgroundColor=none;startArrow=none;startFill=0;jettySize=auto;orthogonalLoop=1;strokeColor=#006EAF;strokeWidth=3;fontFamily=Helvetica;fontSize=14;fontColor=#FFFFFF;spacing=5;fontStyle=1;fillColor=#1ba1e2;entryX=1;entryY=0.5;entryDx=0;entryDy=0;" parent="1" source="rD7ASvJOiuTUFyC9umSX-1847" target="rD7ASvJOiuTUFyC9umSX-1852" edge="1">
          <mxGeometry relative="1" as="geometry">
            <mxPoint x="-6" y="285" as="sourcePoint" />
            <mxPoint x="-68" y="311" as="targetPoint" />
          </mxGeometry>
        </mxCell>
        <mxCell id="rD7ASvJOiuTUFyC9umSX-1858" value="" style="edgeStyle=none;rounded=1;jumpStyle=none;html=1;shadow=0;labelBackgroundColor=none;startArrow=none;startFill=0;jettySize=auto;orthogonalLoop=1;strokeColor=#006EAF;strokeWidth=3;fontFamily=Helvetica;fontSize=14;fontColor=#FFFFFF;spacing=5;fontStyle=1;fillColor=#1ba1e2;" parent="1" source="1753" target="rD7ASvJOiuTUFyC9umSX-1847" edge="1">
          <mxGeometry relative="1" as="geometry">
            <mxPoint x="256" y="458" as="sourcePoint" />
            <mxPoint x="113" y="561" as="targetPoint" />
          </mxGeometry>
        </mxCell>
        <mxCell id="rD7ASvJOiuTUFyC9umSX-1859" value="данные услуг ЖКХ" style="rounded=1;whiteSpace=wrap;html=1;shadow=0;labelBackgroundColor=none;strokeColor=#006EAF;strokeWidth=3;fillColor=#1ba1e2;fontFamily=Helvetica;fontSize=14;fontColor=#ffffff;align=center;spacing=5;fontStyle=0;arcSize=7;perimeterSpacing=2;" parent="1" vertex="1">
          <mxGeometry x="374.25" y="-107.5" width="150" height="60" as="geometry" />
        </mxCell>
        <mxCell id="rD7ASvJOiuTUFyC9umSX-1860" value="утечка данных&lt;div&gt;риск незначительный&lt;br&gt;&lt;/div&gt;" style="rounded=1;whiteSpace=wrap;html=1;shadow=0;labelBackgroundColor=none;strokeColor=#006EAF;strokeWidth=3;fillColor=#1ba1e2;fontFamily=Helvetica;fontSize=14;fontColor=#ffffff;align=center;spacing=5;fontStyle=0;arcSize=7;perimeterSpacing=2;" parent="1" vertex="1">
          <mxGeometry x="160.25" y="-230" width="150" height="60" as="geometry" />
        </mxCell>
        <mxCell id="rD7ASvJOiuTUFyC9umSX-1861" value="потеря данных&lt;div&gt;риск незначительный&lt;br&gt;&lt;/div&gt;" style="rounded=1;whiteSpace=wrap;html=1;shadow=0;labelBackgroundColor=none;strokeColor=#006EAF;strokeWidth=3;fillColor=#1ba1e2;fontFamily=Helvetica;fontSize=14;fontColor=#ffffff;align=center;spacing=5;fontStyle=0;arcSize=7;perimeterSpacing=2;" parent="1" vertex="1">
          <mxGeometry x="160.25" y="-170" width="150" height="60" as="geometry" />
        </mxCell>
        <mxCell id="rD7ASvJOiuTUFyC9umSX-1862" value="искажение данных&lt;div&gt;риск значительный&lt;br&gt;&lt;/div&gt;" style="rounded=1;whiteSpace=wrap;html=1;shadow=0;labelBackgroundColor=none;strokeColor=#006EAF;strokeWidth=3;fillColor=#1ba1e2;fontFamily=Helvetica;fontSize=14;fontColor=#ffffff;align=center;spacing=5;fontStyle=0;arcSize=7;perimeterSpacing=2;" parent="1" vertex="1">
          <mxGeometry x="160.25" y="-109" width="150" height="60" as="geometry" />
        </mxCell>
        <mxCell id="rD7ASvJOiuTUFyC9umSX-1863" value="некачественные данные&lt;div&gt;риск значительный&lt;br&gt;&lt;/div&gt;" style="rounded=1;whiteSpace=wrap;html=1;shadow=0;labelBackgroundColor=none;strokeColor=#006EAF;strokeWidth=3;fillColor=#1ba1e2;fontFamily=Helvetica;fontSize=14;fontColor=#ffffff;align=center;spacing=5;fontStyle=0;arcSize=7;perimeterSpacing=2;" parent="1" vertex="1">
          <mxGeometry x="160.25" y="-49" width="150" height="60" as="geometry" />
        </mxCell>
        <mxCell id="rD7ASvJOiuTUFyC9umSX-1864" value="обесценивание данных&lt;div&gt;риск незначительный&lt;br&gt;&lt;/div&gt;" style="rounded=1;whiteSpace=wrap;html=1;shadow=0;labelBackgroundColor=none;strokeColor=#006EAF;strokeWidth=3;fillColor=#1ba1e2;fontFamily=Helvetica;fontSize=14;fontColor=#ffffff;align=center;spacing=5;fontStyle=0;arcSize=7;perimeterSpacing=2;" parent="1" vertex="1">
          <mxGeometry x="160.25" y="11" width="150" height="60" as="geometry" />
        </mxCell>
        <mxCell id="rD7ASvJOiuTUFyC9umSX-1865" value="" style="edgeStyle=none;rounded=1;jumpStyle=none;html=1;shadow=0;labelBackgroundColor=none;startArrow=none;startFill=0;jettySize=auto;orthogonalLoop=1;strokeColor=#006EAF;strokeWidth=3;fontFamily=Helvetica;fontSize=14;fontColor=#FFFFFF;spacing=5;fontStyle=1;fillColor=#1ba1e2;entryX=1;entryY=0.5;entryDx=0;entryDy=0;" parent="1" source="rD7ASvJOiuTUFyC9umSX-1859" target="rD7ASvJOiuTUFyC9umSX-1860" edge="1">
          <mxGeometry relative="1" as="geometry">
            <mxPoint x="583.25" y="-67" as="sourcePoint" />
            <mxPoint x="536.25" y="-67" as="targetPoint" />
          </mxGeometry>
        </mxCell>
        <mxCell id="rD7ASvJOiuTUFyC9umSX-1866" value="" style="edgeStyle=none;rounded=1;jumpStyle=none;html=1;shadow=0;labelBackgroundColor=none;startArrow=none;startFill=0;jettySize=auto;orthogonalLoop=1;strokeColor=#006EAF;strokeWidth=3;fontFamily=Helvetica;fontSize=14;fontColor=#FFFFFF;spacing=5;fontStyle=1;fillColor=#1ba1e2;entryX=1;entryY=0.5;entryDx=0;entryDy=0;" parent="1" source="rD7ASvJOiuTUFyC9umSX-1859" target="rD7ASvJOiuTUFyC9umSX-1861" edge="1">
          <mxGeometry relative="1" as="geometry">
            <mxPoint x="423.25" y="-99" as="sourcePoint" />
            <mxPoint x="322.25" y="-190" as="targetPoint" />
          </mxGeometry>
        </mxCell>
        <mxCell id="rD7ASvJOiuTUFyC9umSX-1867" value="" style="edgeStyle=none;rounded=1;jumpStyle=none;html=1;shadow=0;labelBackgroundColor=none;startArrow=none;startFill=0;jettySize=auto;orthogonalLoop=1;strokeColor=#006EAF;strokeWidth=3;fontFamily=Helvetica;fontSize=14;fontColor=#FFFFFF;spacing=5;fontStyle=1;fillColor=#1ba1e2;entryX=1;entryY=0.5;entryDx=0;entryDy=0;" parent="1" source="rD7ASvJOiuTUFyC9umSX-1859" target="rD7ASvJOiuTUFyC9umSX-1862" edge="1">
          <mxGeometry relative="1" as="geometry">
            <mxPoint x="389.25" y="-99" as="sourcePoint" />
            <mxPoint x="322.25" y="-130" as="targetPoint" />
          </mxGeometry>
        </mxCell>
        <mxCell id="rD7ASvJOiuTUFyC9umSX-1868" value="" style="edgeStyle=none;rounded=1;jumpStyle=none;html=1;shadow=0;labelBackgroundColor=none;startArrow=none;startFill=0;jettySize=auto;orthogonalLoop=1;strokeColor=#006EAF;strokeWidth=3;fontFamily=Helvetica;fontSize=14;fontColor=#FFFFFF;spacing=5;fontStyle=1;fillColor=#1ba1e2;entryX=1;entryY=0.5;entryDx=0;entryDy=0;" parent="1" source="rD7ASvJOiuTUFyC9umSX-1859" target="rD7ASvJOiuTUFyC9umSX-1863" edge="1">
          <mxGeometry relative="1" as="geometry">
            <mxPoint x="382.25" y="-68" as="sourcePoint" />
            <mxPoint x="322.25" y="-69" as="targetPoint" />
          </mxGeometry>
        </mxCell>
        <mxCell id="rD7ASvJOiuTUFyC9umSX-1869" value="" style="edgeStyle=none;rounded=1;jumpStyle=none;html=1;shadow=0;labelBackgroundColor=none;startArrow=none;startFill=0;jettySize=auto;orthogonalLoop=1;strokeColor=#006EAF;strokeWidth=3;fontFamily=Helvetica;fontSize=14;fontColor=#FFFFFF;spacing=5;fontStyle=1;fillColor=#1ba1e2;entryX=1;entryY=0.5;entryDx=0;entryDy=0;" parent="1" source="rD7ASvJOiuTUFyC9umSX-1859" target="rD7ASvJOiuTUFyC9umSX-1864" edge="1">
          <mxGeometry relative="1" as="geometry">
            <mxPoint x="384.25" y="-35" as="sourcePoint" />
            <mxPoint x="322.25" y="-9" as="targetPoint" />
          </mxGeometry>
        </mxCell>
        <mxCell id="rD7ASvJOiuTUFyC9umSX-1870" value="" style="edgeStyle=none;rounded=1;jumpStyle=none;html=1;shadow=0;labelBackgroundColor=none;startArrow=none;startFill=0;jettySize=auto;orthogonalLoop=1;strokeColor=#006EAF;strokeWidth=3;fontFamily=Helvetica;fontSize=14;fontColor=#FFFFFF;spacing=5;fontStyle=1;fillColor=#1ba1e2;" parent="1" source="1764" target="rD7ASvJOiuTUFyC9umSX-1859" edge="1">
          <mxGeometry relative="1" as="geometry">
            <mxPoint x="543.9991525423729" y="38" as="sourcePoint" />
            <mxPoint x="663.25" y="-37.5" as="targetPoint" />
          </mxGeometry>
        </mxCell>
        <mxCell id="rD7ASvJOiuTUFyC9umSX-1871" value="&lt;font style=&quot;font-size: 14px;&quot;&gt;Утечка даёт возможность выполнять действия с правами сотрудника&lt;/font&gt;" style="text;html=1;align=center;verticalAlign=middle;whiteSpace=wrap;rounded=0;" parent="1" vertex="1">
          <mxGeometry x="-510" y="90" width="260" height="60" as="geometry" />
        </mxCell>
        <mxCell id="rD7ASvJOiuTUFyC9umSX-1872" value="&lt;font style=&quot;font-size: 14px;&quot;&gt;Приведёт к временному простою, но можно восстановить из бэкапа&lt;/font&gt;" style="text;html=1;align=center;verticalAlign=middle;whiteSpace=wrap;rounded=0;" parent="1" vertex="1">
          <mxGeometry x="-500" y="150" width="260" height="60" as="geometry" />
        </mxCell>
        <mxCell id="rD7ASvJOiuTUFyC9umSX-1873" value="&lt;font style=&quot;font-size: 14px;&quot;&gt;Возможность выполнять действия требующие более высоких привилегий&lt;/font&gt;" style="text;html=1;align=center;verticalAlign=middle;whiteSpace=wrap;rounded=0;" parent="1" vertex="1">
          <mxGeometry x="-500" y="210" width="260" height="60" as="geometry" />
        </mxCell>
        <mxCell id="rD7ASvJOiuTUFyC9umSX-1874" value="&lt;font style=&quot;font-size: 14px;&quot;&gt;Опечатки не приведут к серьёзным финансовым потерям&lt;/font&gt;" style="text;html=1;align=center;verticalAlign=middle;whiteSpace=wrap;rounded=0;" parent="1" vertex="1">
          <mxGeometry x="-500" y="272.5" width="260" height="60" as="geometry" />
        </mxCell>
        <mxCell id="rD7ASvJOiuTUFyC9umSX-1875" value="&lt;font style=&quot;font-size: 14px;&quot;&gt;Риск не применим, т.к. эти данные не имеют балансовой стоимости&lt;/font&gt;" style="text;html=1;align=center;verticalAlign=middle;whiteSpace=wrap;rounded=0;" parent="1" vertex="1">
          <mxGeometry x="-500" y="332.5" width="260" height="60" as="geometry" />
        </mxCell>
        <mxCell id="rD7ASvJOiuTUFyC9umSX-1876" value="&lt;font style=&quot;font-size: 14px;&quot;&gt;Эти данные могут представлять интерес для конкурентов&lt;/font&gt;" style="text;html=1;align=center;verticalAlign=middle;whiteSpace=wrap;rounded=0;" parent="1" vertex="1">
          <mxGeometry x="-500" y="430.5" width="260" height="60" as="geometry" />
        </mxCell>
        <mxCell id="rD7ASvJOiuTUFyC9umSX-1877" value="&lt;font style=&quot;font-size: 14px;&quot;&gt;Сделки регистрируются в госреестре, так что могут быть восстановлены&lt;/font&gt;" style="text;html=1;align=center;verticalAlign=middle;whiteSpace=wrap;rounded=0;" parent="1" vertex="1">
          <mxGeometry x="-500" y="490.5" width="260" height="60" as="geometry" />
        </mxCell>
        <mxCell id="rD7ASvJOiuTUFyC9umSX-1878" value="&lt;font style=&quot;font-size: 14px;&quot;&gt;Сделки регистрируются в госреестре, так что могут быть восстановлены&lt;/font&gt;" style="text;html=1;align=center;verticalAlign=middle;whiteSpace=wrap;rounded=0;" parent="1" vertex="1">
          <mxGeometry x="-500" y="551" width="260" height="60" as="geometry" />
        </mxCell>
        <mxCell id="rD7ASvJOiuTUFyC9umSX-1879" value="&lt;font style=&quot;font-size: 14px;&quot;&gt;Сделки регистрируются в госреестре, так что могут быть восстановлены&lt;/font&gt;" style="text;html=1;align=center;verticalAlign=middle;whiteSpace=wrap;rounded=0;" parent="1" vertex="1">
          <mxGeometry x="-500" y="610" width="260" height="60" as="geometry" />
        </mxCell>
        <mxCell id="rD7ASvJOiuTUFyC9umSX-1882" value="&lt;font style=&quot;font-size: 14px;&quot;&gt;Риск не применим, т.к. эти данные и так доступны всем&lt;/font&gt;" style="text;html=1;align=center;verticalAlign=middle;whiteSpace=wrap;rounded=0;" parent="1" vertex="1">
          <mxGeometry x="-110" y="-230" width="260" height="60" as="geometry" />
        </mxCell>
        <mxCell id="rD7ASvJOiuTUFyC9umSX-1883" value="&lt;font style=&quot;font-size: 14px;&quot;&gt;Приведёт к временному простою, но можно восстановить из бэкапа&lt;/font&gt;" style="text;html=1;align=center;verticalAlign=middle;whiteSpace=wrap;rounded=0;" parent="1" vertex="1">
          <mxGeometry x="-110" y="-170" width="260" height="60" as="geometry" />
        </mxCell>
        <mxCell id="rD7ASvJOiuTUFyC9umSX-1884" value="&lt;font style=&quot;font-size: 14px;&quot;&gt;Может привести к репутационным потерям&lt;/font&gt;" style="text;html=1;align=center;verticalAlign=middle;whiteSpace=wrap;rounded=0;" parent="1" vertex="1">
          <mxGeometry x="-110" y="-107.5" width="260" height="60" as="geometry" />
        </mxCell>
        <mxCell id="rD7ASvJOiuTUFyC9umSX-1885" value="&lt;font style=&quot;font-size: 14px;&quot;&gt;Может привести к репутационным потерям&lt;/font&gt;" style="text;html=1;align=center;verticalAlign=middle;whiteSpace=wrap;rounded=0;" parent="1" vertex="1">
          <mxGeometry x="-110" y="-49" width="260" height="60" as="geometry" />
        </mxCell>
        <mxCell id="rD7ASvJOiuTUFyC9umSX-1886" value="&lt;font style=&quot;font-size: 14px;&quot;&gt;Риск не применим, т.к. эти данные не имеют балансовой стоимости&lt;/font&gt;" style="text;html=1;align=center;verticalAlign=middle;whiteSpace=wrap;rounded=0;" parent="1" vertex="1">
          <mxGeometry x="-500" y="670" width="260" height="60" as="geometry" />
        </mxCell>
        <mxCell id="rD7ASvJOiuTUFyC9umSX-1887" value="&lt;font style=&quot;font-size: 14px;&quot;&gt;Риск не применим, т.к. эти данные не имеют балансовой стоимости&lt;/font&gt;" style="text;html=1;align=center;verticalAlign=middle;whiteSpace=wrap;rounded=0;" parent="1" vertex="1">
          <mxGeometry x="-110" y="11" width="260" height="60" as="geometry" />
        </mxCell>
        <mxCell id="zlnp164v-S6rJDxqJzwR-1777" value="&lt;font style=&quot;font-size: 14px;&quot;&gt;Риск не применим, т.к. эти данные и так доступны всем&lt;/font&gt;" style="text;html=1;align=center;verticalAlign=middle;whiteSpace=wrap;rounded=0;" vertex="1" parent="1">
          <mxGeometry x="990" y="-230" width="260" height="60" as="geometry" />
        </mxCell>
        <mxCell id="zlnp164v-S6rJDxqJzwR-1778" value="&lt;font style=&quot;font-size: 14px;&quot;&gt;Приведёт к временному простою, но можно восстановить из бэкапа&lt;/font&gt;" style="text;html=1;align=center;verticalAlign=middle;whiteSpace=wrap;rounded=0;" vertex="1" parent="1">
          <mxGeometry x="990" y="-170" width="260" height="60" as="geometry" />
        </mxCell>
        <mxCell id="zlnp164v-S6rJDxqJzwR-1779" value="&lt;font style=&quot;font-size: 14px;&quot;&gt;Может привести к репутационным потерям&lt;/font&gt;" style="text;html=1;align=center;verticalAlign=middle;whiteSpace=wrap;rounded=0;" vertex="1" parent="1">
          <mxGeometry x="990" y="-107.5" width="260" height="60" as="geometry" />
        </mxCell>
        <mxCell id="zlnp164v-S6rJDxqJzwR-1780" value="&lt;font style=&quot;font-size: 14px;&quot;&gt;Может привести к репутационным потерям&lt;/font&gt;" style="text;html=1;align=center;verticalAlign=middle;whiteSpace=wrap;rounded=0;" vertex="1" parent="1">
          <mxGeometry x="990" y="-49" width="260" height="60" as="geometry" />
        </mxCell>
        <mxCell id="zlnp164v-S6rJDxqJzwR-1781" value="&lt;font style=&quot;font-size: 14px;&quot;&gt;Риск не применим, т.к. эти данные не имеют балансовой стоимости&lt;/font&gt;" style="text;html=1;align=center;verticalAlign=middle;whiteSpace=wrap;rounded=0;" vertex="1" parent="1">
          <mxGeometry x="990" y="11" width="260" height="60" as="geometry" />
        </mxCell>
        <mxCell id="zlnp164v-S6rJDxqJzwR-1782" value="&lt;font style=&quot;font-size: 14px;&quot;&gt;Большая часть этих данные и так доступны на сайте&lt;/font&gt;" style="text;html=1;align=center;verticalAlign=middle;whiteSpace=wrap;rounded=0;" vertex="1" parent="1">
          <mxGeometry x="1390" y="100.5" width="260" height="60" as="geometry" />
        </mxCell>
        <mxCell id="zlnp164v-S6rJDxqJzwR-1783" value="&lt;font style=&quot;font-size: 14px;&quot;&gt;Приведёт к временному простою, но можно восстановить из бэкапа&lt;/font&gt;" style="text;html=1;align=center;verticalAlign=middle;whiteSpace=wrap;rounded=0;" vertex="1" parent="1">
          <mxGeometry x="1390" y="160.5" width="260" height="60" as="geometry" />
        </mxCell>
        <mxCell id="zlnp164v-S6rJDxqJzwR-1784" value="&lt;font style=&quot;font-size: 14px;&quot;&gt;Может привести к финансовым потерям&lt;/font&gt;" style="text;html=1;align=center;verticalAlign=middle;whiteSpace=wrap;rounded=0;" vertex="1" parent="1">
          <mxGeometry x="1390" y="223" width="260" height="60" as="geometry" />
        </mxCell>
        <mxCell id="zlnp164v-S6rJDxqJzwR-1785" value="&lt;span style=&quot;font-size: 14px;&quot;&gt;Может привести к финансовым потерям&lt;/span&gt;" style="text;html=1;align=center;verticalAlign=middle;whiteSpace=wrap;rounded=0;" vertex="1" parent="1">
          <mxGeometry x="1390" y="281.5" width="260" height="60" as="geometry" />
        </mxCell>
        <mxCell id="zlnp164v-S6rJDxqJzwR-1786" value="&lt;font style=&quot;font-size: 14px;&quot;&gt;Риск не применим, т.к. эти данные не имеют балансовой стоимости&lt;/font&gt;" style="text;html=1;align=center;verticalAlign=middle;whiteSpace=wrap;rounded=0;" vertex="1" parent="1">
          <mxGeometry x="1390" y="341.5" width="260" height="60" as="geometry" />
        </mxCell>
        <mxCell id="zlnp164v-S6rJDxqJzwR-1787" value="&lt;span style=&quot;font-size: 14px;&quot;&gt;Эти данные могут представлять интерес для конкурентов&lt;/span&gt;" style="text;html=1;align=center;verticalAlign=middle;whiteSpace=wrap;rounded=0;" vertex="1" parent="1">
          <mxGeometry x="990" y="752.5" width="260" height="60" as="geometry" />
        </mxCell>
        <mxCell id="zlnp164v-S6rJDxqJzwR-1788" value="&lt;span style=&quot;font-size: 14px;&quot;&gt;Приведёт к временному простою, но можно восстановить из бэкапа&lt;/span&gt;" style="text;html=1;align=center;verticalAlign=middle;whiteSpace=wrap;rounded=0;" vertex="1" parent="1">
          <mxGeometry x="990" y="812.5" width="260" height="60" as="geometry" />
        </mxCell>
        <mxCell id="zlnp164v-S6rJDxqJzwR-1789" value="&lt;span style=&quot;font-size: 14px;&quot;&gt;Может привести к финансовым потерям&lt;/span&gt;" style="text;html=1;align=center;verticalAlign=middle;whiteSpace=wrap;rounded=0;" vertex="1" parent="1">
          <mxGeometry x="990" y="875" width="260" height="60" as="geometry" />
        </mxCell>
        <mxCell id="zlnp164v-S6rJDxqJzwR-1790" value="&lt;span style=&quot;font-size: 14px;&quot;&gt;Может привести к финансовым потерям&lt;/span&gt;" style="text;html=1;align=center;verticalAlign=middle;whiteSpace=wrap;rounded=0;" vertex="1" parent="1">
          <mxGeometry x="990" y="933.5" width="260" height="60" as="geometry" />
        </mxCell>
        <mxCell id="zlnp164v-S6rJDxqJzwR-1791" value="&lt;font style=&quot;font-size: 14px;&quot;&gt;Риск не применим, т.к. эти данные не имеют балансовой стоимости&lt;/font&gt;" style="text;html=1;align=center;verticalAlign=middle;whiteSpace=wrap;rounded=0;" vertex="1" parent="1">
          <mxGeometry x="990" y="993.5" width="260" height="60" as="geometry" />
        </mxCell>
        <mxCell id="zlnp164v-S6rJDxqJzwR-1792" value="&lt;span style=&quot;font-size: 14px;&quot;&gt;Эти данные могут представлять интерес для конкурентов&lt;/span&gt;" style="text;html=1;align=center;verticalAlign=middle;whiteSpace=wrap;rounded=0;" vertex="1" parent="1">
          <mxGeometry x="-90" y="752" width="260" height="60" as="geometry" />
        </mxCell>
        <mxCell id="zlnp164v-S6rJDxqJzwR-1793" value="&lt;span style=&quot;font-size: 14px;&quot;&gt;Приведёт к временному простою, но можно восстановить из бэкапа&lt;/span&gt;" style="text;html=1;align=center;verticalAlign=middle;whiteSpace=wrap;rounded=0;" vertex="1" parent="1">
          <mxGeometry x="-90" y="812" width="260" height="60" as="geometry" />
        </mxCell>
        <mxCell id="zlnp164v-S6rJDxqJzwR-1794" value="&lt;span style=&quot;font-size: 14px;&quot;&gt;Может привести к финансовым потерям&lt;/span&gt;" style="text;html=1;align=center;verticalAlign=middle;whiteSpace=wrap;rounded=0;" vertex="1" parent="1">
          <mxGeometry x="-90" y="874.5" width="260" height="60" as="geometry" />
        </mxCell>
        <mxCell id="zlnp164v-S6rJDxqJzwR-1795" value="&lt;span style=&quot;font-size: 14px;&quot;&gt;Может привести к финансовым потерям&lt;/span&gt;" style="text;html=1;align=center;verticalAlign=middle;whiteSpace=wrap;rounded=0;" vertex="1" parent="1">
          <mxGeometry x="-90" y="933" width="260" height="60" as="geometry" />
        </mxCell>
        <mxCell id="zlnp164v-S6rJDxqJzwR-1796" value="&lt;font style=&quot;font-size: 14px;&quot;&gt;Риск не применим, т.к. эти данные не имеют балансовой стоимости&lt;/font&gt;" style="text;html=1;align=center;verticalAlign=middle;whiteSpace=wrap;rounded=0;" vertex="1" parent="1">
          <mxGeometry x="-90" y="993" width="260" height="60" as="geometry" />
        </mxCell>
        <mxCell id="zlnp164v-S6rJDxqJzwR-1797" value="&lt;span style=&quot;font-size: 14px;&quot;&gt;Эти данные могут представлять интерес для конкурентов&lt;/span&gt;" style="text;html=1;align=center;verticalAlign=middle;whiteSpace=wrap;rounded=0;" vertex="1" parent="1">
          <mxGeometry x="1390" y="429" width="260" height="60" as="geometry" />
        </mxCell>
        <mxCell id="zlnp164v-S6rJDxqJzwR-1798" value="&lt;span style=&quot;font-size: 14px;&quot;&gt;Может привести к недополученной прибыли&lt;/span&gt;" style="text;html=1;align=center;verticalAlign=middle;whiteSpace=wrap;rounded=0;" vertex="1" parent="1">
          <mxGeometry x="1390" y="489" width="260" height="60" as="geometry" />
        </mxCell>
        <mxCell id="zlnp164v-S6rJDxqJzwR-1799" value="&lt;span style=&quot;font-size: 14px;&quot;&gt;Может привести к недополученной прибыли&lt;/span&gt;" style="text;html=1;align=center;verticalAlign=middle;whiteSpace=wrap;rounded=0;" vertex="1" parent="1">
          <mxGeometry x="1390" y="551.5" width="260" height="60" as="geometry" />
        </mxCell>
        <mxCell id="zlnp164v-S6rJDxqJzwR-1800" value="&lt;span style=&quot;font-size: 14px;&quot;&gt;Может привести к недополученной прибыли&lt;/span&gt;" style="text;html=1;align=center;verticalAlign=middle;whiteSpace=wrap;rounded=0;" vertex="1" parent="1">
          <mxGeometry x="1390" y="610" width="260" height="60" as="geometry" />
        </mxCell>
        <mxCell id="zlnp164v-S6rJDxqJzwR-1801" value="&lt;font style=&quot;font-size: 14px;&quot;&gt;Риск не применим, т.к. эти данные не имеют балансовой стоимости&lt;/font&gt;" style="text;html=1;align=center;verticalAlign=middle;whiteSpace=wrap;rounded=0;" vertex="1" parent="1">
          <mxGeometry x="1390" y="670" width="260" height="60" as="geometry" />
        </mxCell>
      </root>
    </mxGraphModel>
  </diagram>
</mxfile>
